<mxfile host="app.diagrams.net" modified="2023-05-04T12:18:49.561Z" agent="Mozilla/5.0 (Windows NT 10.0; Win64; x64) AppleWebKit/537.36 (KHTML, like Gecko) Chrome/112.0.0.0 Safari/537.36" etag="hDzimkYIGMMrsxnxy1Vh" version="21.2.7" type="device">
  <diagram name="Страница 1" id="ydLunnIMC0V44R3IWkNL">
    <mxGraphModel dx="880" dy="452" grid="1" gridSize="10" guides="1" tooltips="1" connect="1" arrows="1" fold="1" page="1" pageScale="1" pageWidth="827" pageHeight="1169" math="0" shadow="0">
      <root>
        <mxCell id="0" />
        <mxCell id="1" parent="0" />
        <mxCell id="8f06ePD5pCFcjaUuxLJm-3" value="" style="edgeStyle=orthogonalEdgeStyle;rounded=0;orthogonalLoop=1;jettySize=auto;html=1;" parent="1" source="8f06ePD5pCFcjaUuxLJm-1" target="8f06ePD5pCFcjaUuxLJm-2" edge="1">
          <mxGeometry relative="1" as="geometry">
            <Array as="points">
              <mxPoint x="200" y="70" />
              <mxPoint x="200" y="70" />
            </Array>
          </mxGeometry>
        </mxCell>
        <mxCell id="8f06ePD5pCFcjaUuxLJm-1" value="Пользователь пишет&lt;br&gt;адрес в браузере" style="rounded=0;whiteSpace=wrap;html=1;" parent="1" vertex="1">
          <mxGeometry x="40" y="40" width="120" height="60" as="geometry" />
        </mxCell>
        <mxCell id="8f06ePD5pCFcjaUuxLJm-6" value="" style="edgeStyle=orthogonalEdgeStyle;rounded=0;orthogonalLoop=1;jettySize=auto;html=1;" parent="1" source="8f06ePD5pCFcjaUuxLJm-2" target="8f06ePD5pCFcjaUuxLJm-5" edge="1">
          <mxGeometry relative="1" as="geometry" />
        </mxCell>
        <mxCell id="8f06ePD5pCFcjaUuxLJm-2" value="Сервер принимает запрос" style="whiteSpace=wrap;html=1;rounded=0;" parent="1" vertex="1">
          <mxGeometry x="240" y="40" width="120" height="60" as="geometry" />
        </mxCell>
        <mxCell id="8f06ePD5pCFcjaUuxLJm-4" value="Запрос" style="text;html=1;strokeColor=none;fillColor=none;align=center;verticalAlign=middle;whiteSpace=wrap;rounded=0;" parent="1" vertex="1">
          <mxGeometry x="170" y="40" width="60" height="30" as="geometry" />
        </mxCell>
        <mxCell id="8f06ePD5pCFcjaUuxLJm-8" style="edgeStyle=orthogonalEdgeStyle;rounded=0;orthogonalLoop=1;jettySize=auto;html=1;" parent="1" source="8f06ePD5pCFcjaUuxLJm-5" target="8f06ePD5pCFcjaUuxLJm-10" edge="1">
          <mxGeometry relative="1" as="geometry">
            <mxPoint x="420" y="170" as="targetPoint" />
            <Array as="points">
              <mxPoint x="640" y="140" />
              <mxPoint x="100" y="140" />
            </Array>
          </mxGeometry>
        </mxCell>
        <mxCell id="8f06ePD5pCFcjaUuxLJm-5" value="Django получает запрос и считывает из него адрес страницы" style="whiteSpace=wrap;html=1;rounded=0;" parent="1" vertex="1">
          <mxGeometry x="570" y="40" width="140" height="60" as="geometry" />
        </mxCell>
        <mxCell id="8f06ePD5pCFcjaUuxLJm-7" value="Сервер отправляет запрос в джанго" style="text;html=1;strokeColor=none;fillColor=none;align=center;verticalAlign=middle;whiteSpace=wrap;rounded=0;" parent="1" vertex="1">
          <mxGeometry x="370" y="40" width="190" height="30" as="geometry" />
        </mxCell>
        <mxCell id="8f06ePD5pCFcjaUuxLJm-12" value="" style="edgeStyle=orthogonalEdgeStyle;rounded=0;orthogonalLoop=1;jettySize=auto;html=1;" parent="1" source="8f06ePD5pCFcjaUuxLJm-10" target="8f06ePD5pCFcjaUuxLJm-11" edge="1">
          <mxGeometry relative="1" as="geometry" />
        </mxCell>
        <mxCell id="8f06ePD5pCFcjaUuxLJm-19" value="" style="edgeStyle=orthogonalEdgeStyle;rounded=0;orthogonalLoop=1;jettySize=auto;html=1;" parent="1" source="8f06ePD5pCFcjaUuxLJm-10" target="8f06ePD5pCFcjaUuxLJm-18" edge="1">
          <mxGeometry relative="1" as="geometry" />
        </mxCell>
        <mxCell id="8f06ePD5pCFcjaUuxLJm-10" value="Django проверяет адрес страницы по файлу urls" style="rounded=0;whiteSpace=wrap;html=1;" parent="1" vertex="1">
          <mxGeometry x="40" y="180" width="120" height="60" as="geometry" />
        </mxCell>
        <mxCell id="8f06ePD5pCFcjaUuxLJm-14" value="" style="edgeStyle=orthogonalEdgeStyle;rounded=0;orthogonalLoop=1;jettySize=auto;html=1;" parent="1" source="8f06ePD5pCFcjaUuxLJm-11" target="8f06ePD5pCFcjaUuxLJm-13" edge="1">
          <mxGeometry relative="1" as="geometry" />
        </mxCell>
        <mxCell id="8f06ePD5pCFcjaUuxLJm-11" value="Django смотрит модуль views и переходит на него, передавая request от браузера" style="whiteSpace=wrap;html=1;rounded=0;" parent="1" vertex="1">
          <mxGeometry x="270" y="180" width="190" height="60" as="geometry" />
        </mxCell>
        <mxCell id="8f06ePD5pCFcjaUuxLJm-17" value="" style="edgeStyle=orthogonalEdgeStyle;rounded=0;orthogonalLoop=1;jettySize=auto;html=1;" parent="1" source="8f06ePD5pCFcjaUuxLJm-13" target="8f06ePD5pCFcjaUuxLJm-16" edge="1">
          <mxGeometry relative="1" as="geometry" />
        </mxCell>
        <mxCell id="8f06ePD5pCFcjaUuxLJm-13" value="Отрабатывается весь код во views и отдается в templates(html-файл)&amp;nbsp;" style="whiteSpace=wrap;html=1;rounded=0;" parent="1" vertex="1">
          <mxGeometry x="510" y="175" width="120" height="70" as="geometry" />
        </mxCell>
        <mxCell id="8f06ePD5pCFcjaUuxLJm-15" value="Находит соответствие" style="text;html=1;strokeColor=none;fillColor=none;align=center;verticalAlign=middle;whiteSpace=wrap;rounded=0;" parent="1" vertex="1">
          <mxGeometry x="180" y="180" width="60" height="30" as="geometry" />
        </mxCell>
        <mxCell id="8f06ePD5pCFcjaUuxLJm-16" value="Браузер собирает html-файл&amp;nbsp;&lt;br&gt;пользователю" style="whiteSpace=wrap;html=1;rounded=0;" parent="1" vertex="1">
          <mxGeometry x="680" y="180" width="120" height="60" as="geometry" />
        </mxCell>
        <mxCell id="8f06ePD5pCFcjaUuxLJm-18" value="Ошибка&lt;br&gt;&quot;Страница не найдена&quot;" style="whiteSpace=wrap;html=1;rounded=0;" parent="1" vertex="1">
          <mxGeometry x="40" y="320" width="120" height="60" as="geometry" />
        </mxCell>
        <mxCell id="8f06ePD5pCFcjaUuxLJm-20" value="Не находит" style="text;html=1;strokeColor=none;fillColor=none;align=center;verticalAlign=middle;whiteSpace=wrap;rounded=0;" parent="1" vertex="1">
          <mxGeometry x="100" y="260" width="80" height="30" as="geometry" />
        </mxCell>
      </root>
    </mxGraphModel>
  </diagram>
</mxfile>
